<?xml version="1.0" encoding="UTF-8" standalone="no"?>
<!-- Created with Inkscape (http://www.inkscape.org/) -->

<svg
   version="1.1"
   id="svg1"
   width="275.508"
   height="503.28534"
   viewBox="0 0 275.50799 503.28534"
   sodipodi:docname="schlumberger-petrel-software-simulation-seeklogo.svg"
   xmlns:inkscape="http://www.inkscape.org/namespaces/inkscape"
   xmlns:sodipodi="http://sodipodi.sourceforge.net/DTD/sodipodi-0.dtd"
   xmlns="http://www.w3.org/2000/svg"
   xmlns:svg="http://www.w3.org/2000/svg">
  <defs
     id="defs1">
    <clipPath
       clipPathUnits="userSpaceOnUse"
       id="clipPath3">
      <path
         d="M 0,595.28 H 841.89 V 0 H 0 Z"
         transform="translate(-84.585002,-149.8347)"
         id="path3" />
    </clipPath>
    <clipPath
       clipPathUnits="userSpaceOnUse"
       id="clipPath5">
      <path
         d="M 0,595.28 H 841.89 V 0 H 0 Z"
         transform="translate(-99.0943,-149.00411)"
         id="path5" />
    </clipPath>
    <clipPath
       clipPathUnits="userSpaceOnUse"
       id="clipPath7">
      <path
         d="M 0,595.28 H 841.89 V 0 H 0 Z"
         transform="translate(-127.0405,-131.94701)"
         id="path7" />
    </clipPath>
    <clipPath
       clipPathUnits="userSpaceOnUse"
       id="clipPath9">
      <path
         d="M 0,595.28 H 841.89 V 0 H 0 Z"
         transform="translate(-141.5526,-125.36861)"
         id="path9" />
    </clipPath>
    <clipPath
       clipPathUnits="userSpaceOnUse"
       id="clipPath11">
      <path
         d="M 0,595.28 H 841.89 V 0 H 0 Z"
         transform="translate(-170.6422,-131.9364)"
         id="path11" />
    </clipPath>
    <clipPath
       clipPathUnits="userSpaceOnUse"
       id="clipPath13">
      <path
         d="M 0,595.28 H 841.89 V 0 H 0 Z"
         transform="translate(-187.8718,-144.14891)"
         id="path13" />
    </clipPath>
    <clipPath
       clipPathUnits="userSpaceOnUse"
       id="clipPath15">
      <path
         d="M 0,595.28 H 841.89 V 0 H 0 Z"
         transform="translate(-203.7514,-150.69131)"
         id="path15" />
    </clipPath>
    <clipPath
       clipPathUnits="userSpaceOnUse"
       id="clipPath17">
      <path
         d="M 0,595.28 H 841.89 V 0 H 0 Z"
         transform="translate(-239.48331,-144.14891)"
         id="path17" />
    </clipPath>
    <clipPath
       clipPathUnits="userSpaceOnUse"
       id="clipPath19">
      <path
         d="M 0,595.28 H 841.89 V 0 H 0 Z"
         transform="translate(-255.34381,-150.69131)"
         id="path19" />
    </clipPath>
    <clipPath
       clipPathUnits="userSpaceOnUse"
       id="clipPath21">
      <path
         d="M 0,595.28 H 841.89 V 0 H 0 Z"
         transform="translate(-222.28561,-123.13421)"
         id="path21" />
    </clipPath>
    <clipPath
       clipPathUnits="userSpaceOnUse"
       id="clipPath23">
      <path
         d="M 0,595.28 H 841.89 V 0 H 0 Z"
         transform="translate(-63.804802,-131.87441)"
         id="path23" />
    </clipPath>
    <radialGradient
       fx="0"
       fy="0"
       cx="0"
       cy="0"
       r="1"
       gradientUnits="userSpaceOnUse"
       gradientTransform="matrix(100.82252,0,0,-100.82252,160.48831,391.77936)"
       spreadMethod="pad"
       id="radialGradient25">
      <stop
         style="stop-opacity:1;stop-color:#ffffff"
         offset="0"
         id="stop23" />
      <stop
         style="stop-opacity:1;stop-color:#faf563"
         offset="0.397959"
         id="stop24" />
      <stop
         style="stop-opacity:1;stop-color:#b4321f"
         offset="1"
         id="stop25" />
    </radialGradient>
    <clipPath
       clipPathUnits="userSpaceOnUse"
       id="clipPath27">
      <path
         d="M 0,595.28 H 841.89 V 0 H 0 Z"
         transform="translate(-72.532802,-491.12521)"
         id="path27" />
    </clipPath>
    <clipPath
       clipPathUnits="userSpaceOnUse"
       id="clipPath28">
      <path
         d="M 59.877,492.813 H 261.1 V 349.383 H 59.877 Z"
         transform="translate(-261.0997,-480.15711)"
         id="path28" />
    </clipPath>
    <clipPath
       clipPathUnits="userSpaceOnUse"
       id="clipPath30">
      <path
         d="M 0,595.28 H 841.89 V 0 H 0 Z"
         transform="matrix(1.3333333,0,0,-1.3333333,0,793.70667)"
         id="path30" />
    </clipPath>
    <radialGradient
       fx="0"
       fy="0"
       cx="0"
       cy="0"
       r="1"
       gradientUnits="userSpaceOnUse"
       gradientTransform="matrix(128.92067,23.828915,18.58017,-100.52358,89.083855,371.16364)"
       spreadMethod="pad"
       id="radialGradient33">
      <stop
         style="stop-opacity:1;stop-color:#ffffff"
         offset="0"
         id="stop30" />
      <stop
         style="stop-opacity:1;stop-color:#ffffff"
         offset="0.165594"
         id="stop31" />
      <stop
         style="stop-opacity:1;stop-color:#6f0b0e"
         offset="0.851566"
         id="stop32" />
      <stop
         style="stop-opacity:1;stop-color:#6f0b0e"
         offset="1"
         id="stop33" />
    </radialGradient>
    <clipPath
       clipPathUnits="userSpaceOnUse"
       id="clipPath35">
      <path
         d="M 0,595.28 H 841.89 V 0 H 0 Z"
         transform="translate(-99.055202,-468.58111)"
         id="path35" />
    </clipPath>
    <linearGradient
       x1="0"
       y1="0"
       x2="1"
       y2="0"
       gradientUnits="userSpaceOnUse"
       gradientTransform="matrix(164.15637,0,0,-164.15637,79.296364,391.54407)"
       spreadMethod="pad"
       id="linearGradient38">
      <stop
         style="stop-opacity:1;stop-color:#701418"
         offset="0"
         id="stop35" />
      <stop
         style="stop-opacity:1;stop-color:#701418"
         offset="0.165594"
         id="stop36" />
      <stop
         style="stop-opacity:1;stop-color:#261313"
         offset="0.851566"
         id="stop37" />
      <stop
         style="stop-opacity:1;stop-color:#261313"
         offset="1"
         id="stop38" />
    </linearGradient>
    <clipPath
       clipPathUnits="userSpaceOnUse"
       id="clipPath40">
      <path
         d="M 0,595.28 H 841.89 V 0 H 0 Z"
         transform="translate(-70.407502,-245.32631)"
         id="path40" />
    </clipPath>
    <clipPath
       clipPathUnits="userSpaceOnUse"
       id="clipPath42">
      <path
         d="M 0,595.28 H 841.89 V 0 H 0 Z"
         transform="translate(-125.0311,-232.94501)"
         id="path42" />
    </clipPath>
    <clipPath
       clipPathUnits="userSpaceOnUse"
       id="clipPath44">
      <path
         d="M 0,595.28 H 841.89 V 0 H 0 Z"
         transform="translate(-234.39061,-233.20421)"
         id="path44" />
    </clipPath>
    <clipPath
       clipPathUnits="userSpaceOnUse"
       id="clipPath46">
      <path
         d="M 0,595.28 H 841.89 V 0 H 0 Z"
         transform="translate(-172.09551,-214.4502)"
         id="path46" />
    </clipPath>
    <clipPath
       clipPathUnits="userSpaceOnUse"
       id="clipPath48">
      <path
         d="M 0,595.28 H 841.89 V 0 H 0 Z"
         transform="translate(-153.9279,-272.11611)"
         id="path48" />
    </clipPath>
    <clipPath
       clipPathUnits="userSpaceOnUse"
       id="clipPath50">
      <path
         d="M 0,595.28 H 841.89 V 0 H 0 Z"
         transform="translate(-263.0302,-224.61761)"
         id="path50" />
    </clipPath>
  </defs>
  <sodipodi:namedview
     id="namedview1"
     pagecolor="#ffffff"
     bordercolor="#000000"
     borderopacity="0.25"
     inkscape:showpageshadow="2"
     inkscape:pageopacity="0.0"
     inkscape:pagecheckerboard="0"
     inkscape:deskcolor="#d1d1d1"
     showgrid="false" />
  <g
     id="layer-MC0"
     inkscape:groupmode="layer"
     inkscape:label="Layer 1"
     transform="translate(-75.363734,-134.37307)">
    <path
       id="path1"
       d="m 109.838,163.657 h 6.47 v -38.285 h -6.47 z"
       style="fill:#1b458f;fill-opacity:1;fill-rule:evenodd;stroke:none"
       transform="matrix(1.3333333,0,0,-1.3333333,0,793.70667)" />
    <path
       id="path2"
       d="M 0,0 C 0,0.906 -0.623,1.399 -1.337,1.399 -2.049,1.399 -2.688,0.919 -2.688,0 v -18.438 c 0,-0.919 0.639,-1.399 1.351,-1.399 0.714,0 1.337,0.501 1.337,1.399 v 6.042 h 6.464 v -5.57 c 0,-4.519 -3.552,-6.872 -7.831,-6.872 -4.092,0 -7.786,2.278 -7.786,6.872 v 17.497 c 0,4.583 3.694,6.869 7.786,6.869 4.206,0 7.831,-2.357 7.831,-6.869 V -5.457 H 0 Z"
       style="fill:#1b458f;fill-opacity:1;fill-rule:evenodd;stroke:none"
       transform="matrix(1.3333333,0,0,-1.3333333,112.78,593.92707)"
       clip-path="url(#clipPath3)" />
    <path
       id="path4"
       d="m 0,0 c 0,0.919 0.636,1.399 1.348,1.399 0.715,0 1.34,-0.496 1.34,-1.399 v -23.635 h 6.47 V 1.687 c 0,4.128 -2.674,5.549 -4.715,5.549 -2.28,0 -3.882,-1.648 -4.325,-2.486 H 0.014 v 9.903 H -6.457 V -23.635 H 0 Z"
       style="fill:#1b458f;fill-opacity:1;fill-rule:evenodd;stroke:none"
       transform="matrix(1.3333333,0,0,-1.3333333,132.12573,595.03453)"
       clip-path="url(#clipPath5)" />
    <path
       id="path6"
       d="m 0,0 c 0,-0.9 -0.625,-1.399 -1.34,-1.399 -0.709,0 -1.348,0.48 -1.348,1.399 V 23.932 H -9.155 V -1.48 c 0,-3.371 2.324,-5.471 4.817,-5.471 2.527,0 3.898,1.832 4.287,2.502 H 0.095 L 0.21,-6.578 h 6.257 v 30.51 H 0 Z"
       style="fill:#1b458f;fill-opacity:1;fill-rule:evenodd;stroke:none"
       transform="matrix(1.3333333,0,0,-1.3333333,169.38733,617.77733)"
       clip-path="url(#clipPath7)" />
    <path
       id="path8"
       d="m 0,0 h -6.467 v 30.51 h 6.405 l 0.065,-2.127 h 0.129 c 0.475,0.936 2.014,2.489 4.346,2.489 2.416,0 3.969,-1.861 4.3,-2.956 H 8.87 c 0.483,1.114 2.176,2.956 4.626,2.956 2.475,0 4.847,-1.68 4.847,-5.832 V 0 h -6.47 v 23.937 c 0,0.923 -0.633,1.403 -1.345,1.403 -0.715,0 -1.345,-0.496 -1.345,-1.403 V 0 H 2.682 v 23.927 c 0,0.922 -0.644,1.402 -1.355,1.402 C 0.612,25.329 0,24.832 0,23.927 Z"
       style="fill:#1b458f;fill-opacity:1;fill-rule:evenodd;stroke:none"
       transform="matrix(1.3333333,0,0,-1.3333333,188.7368,626.54853)"
       clip-path="url(#clipPath9)" />
    <path
       id="path10"
       d="m 0,0 c 0,-0.904 -0.625,-1.399 -1.343,-1.399 -0.711,0 -1.35,0.482 -1.35,1.399 v 17.35 c 0,0.92 0.639,1.4 1.35,1.4 0.718,0 1.343,-0.499 1.343,-1.4 z m 1.572,24.304 c -2.165,0.002 -3.723,-1.831 -4.13,-2.5 h -0.138 v 9.916 h -6.47 V -6.568 h 6.397 l 0.073,2.13 h 0.138 c 0.323,-0.822 1.711,-2.491 4.084,-2.494 2.739,-0.003 4.966,2.357 4.966,5.926 v 19.761 c 0,3.432 -2.322,5.549 -4.92,5.549"
       style="fill:#1b458f;fill-opacity:1;fill-rule:evenodd;stroke:none"
       transform="matrix(1.3333333,0,0,-1.3333333,227.52293,617.79147)"
       clip-path="url(#clipPath11)" />
    <path
       id="path12"
       d="m 0,0 v 5.68 c 0,0.903 -0.625,1.399 -1.337,1.399 -0.712,0 -1.354,-0.477 -1.354,-1.399 L -2.685,0 Z m -2.691,-12.768 c 0,-0.919 0.642,-1.399 1.354,-1.399 0.712,0 1.337,0.496 1.337,1.399 v 6.058 h 6.465 v -5.564 c 0,-4.602 -3.785,-6.879 -7.829,-6.879 -4.095,0 -7.802,2.277 -7.802,6.879 v 17.48 c 0,4.585 3.701,6.88 7.797,6.88 4.203,0 7.834,-2.346 7.834,-6.88 v -9.859 h -9.156 z"
       style="fill:#1b458f;fill-opacity:1;fill-rule:evenodd;stroke:none"
       transform="matrix(1.3333333,0,0,-1.3333333,250.49573,601.50813)"
       clip-path="url(#clipPath13)" />
    <path
       id="path14"
       d="M 0,0 C -0.709,0 -1.353,-0.479 -1.353,-1.401 V -25.323 H -7.827 V 5.188 h 6.344 l 0.124,-2.125 h 0.143 c 0.611,0.849 2.173,2.486 4.335,2.486 2.505,0 4.691,-2.033 4.691,-5.26 V -11.163 H 1.337 v 9.964 C 1.337,-0.468 0.639,0 -0.014,0 Z"
       style="fill:#1b458f;fill-opacity:1;fill-rule:evenodd;stroke:none"
       transform="matrix(1.3333333,0,0,-1.3333333,271.66853,592.78493)"
       clip-path="url(#clipPath15)" />
    <path
       id="path16"
       d="m 0,0 v 5.68 c 0,0.903 -0.623,1.399 -1.337,1.399 -0.71,0 -1.354,-0.477 -1.354,-1.399 L -2.685,0 Z m -2.691,-12.768 c 0,-0.919 0.644,-1.399 1.354,-1.399 0.714,0 1.337,0.496 1.337,1.399 v 6.058 h 6.468 v -5.564 c 0,-4.602 -3.794,-6.879 -7.832,-6.879 -4.095,0 -7.797,2.277 -7.797,6.879 v 17.48 c 0,4.585 3.696,6.88 7.792,6.88 4.202,0 7.837,-2.346 7.837,-6.88 v -9.859 h -9.159 z"
       style="fill:#1b458f;fill-opacity:1;fill-rule:evenodd;stroke:none"
       transform="matrix(1.3333333,0,0,-1.3333333,319.31107,601.50813)"
       clip-path="url(#clipPath17)" />
    <path
       id="path18"
       d="M 0,0 C -0.718,0 -1.357,-0.479 -1.357,-1.401 V -25.323 H -7.833 V 5.188 h 6.342 l 0.129,-2.125 h 0.141 c 0.611,0.849 2.175,2.486 4.337,2.486 2.507,0 4.694,-2.033 4.694,-5.26 V -11.163 H 1.331 v 9.964 C 1.331,-0.468 0.633,0 -0.016,0 Z"
       style="fill:#1b458f;fill-opacity:1;fill-rule:evenodd;stroke:none"
       transform="matrix(1.3333333,0,0,-1.3333333,340.4584,592.78493)"
       clip-path="url(#clipPath19)" />
    <path
       id="path20"
       d="m 0,0 c 0,-0.903 -0.623,-1.397 -1.337,-1.397 -0.71,0 -1.351,0.48 -1.351,1.397 v 2.475 h -6.46 V 0.792 c 0,-4.769 3.29,-6.89 7.789,-6.89 4.465,0 7.832,2.121 7.832,6.89 V 32.745 H 0.097 L 0,30.606 h -0.156 c -0.338,0.699 -1.852,2.5 -4.265,2.5 -2.332,0 -4.727,-1.793 -4.727,-5.106 V 9.778 c 0,-3.489 2.241,-5.527 4.765,-5.527 2.399,0 3.795,1.604 4.192,2.24 H 0 Z m 0,10.713 c 0,-0.9 -0.62,-1.396 -1.337,-1.396 -0.71,0 -1.351,0.477 -1.351,1.396 v 15.434 c 0,0.917 0.641,1.394 1.351,1.394 C -0.62,27.541 0,27.048 0,26.147 Z"
       style="fill:#1b458f;fill-opacity:1;fill-rule:evenodd;stroke:none"
       transform="matrix(1.3333333,0,0,-1.3333333,296.3808,629.52773)"
       clip-path="url(#clipPath21)" />
    <path
       id="path22"
       d="m 0,0 c 0,-0.922 0.641,-1.402 1.353,-1.402 0.714,0 1.335,0.499 1.335,1.402 v 3.618 c 0,2.887 -0.618,3.935 -2.762,5.95 -1.827,1.719 -2.749,2.604 -3.93,3.717 -1.51,1.427 -3.252,3.416 -3.252,7.134 v 4.586 c -0.002,5.033 4.188,6.907 8.601,6.907 4.399,0 8.554,-1.915 8.554,-6.872 V 19.127 H 2.688 v 5.737 c 0,0.904 -0.623,1.399 -1.338,1.399 C 0.639,26.263 0,25.784 0,24.864 v -2.755 c 0,-2.386 0.747,-3.435 2.725,-5.324 0.796,-0.76 2.596,-2.513 3.982,-3.864 2.478,-2.429 3.335,-4.618 3.335,-7.629 V 0.167 c 0,-5.33 -4.289,-7.201 -8.697,-7.201 -4.465,0 -8.627,1.871 -8.627,6.948 V 7.255 H 0 Z"
       style="fill:#1b458f;fill-opacity:1;fill-rule:evenodd;stroke:none"
       transform="matrix(1.3333333,0,0,-1.3333333,85.073067,617.87413)"
       clip-path="url(#clipPath23)" />
    <path
       id="path25"
       d="m 67.377,492.813 c -4.125,0 -7.5,-3.375 -7.5,-7.501 v 0 -187.066 c 0,-4.125 3.375,-7.5 7.5,-7.5 v 0 h 186.222 c 4.126,0 7.501,3.375 7.501,7.5 v 0 187.066 c 0,4.126 -3.375,7.501 -7.501,7.501 v 0 z"
       style="fill:url(#radialGradient25);stroke:none"
       transform="matrix(1.3333333,0,0,-1.3333333,0,793.70667)" />
    <path
       id="path26"
       d="m 0,0 c -6.048,0 -10.968,-4.921 -10.968,-10.968 v -176.756 c 0,-6.047 4.92,-10.968 10.968,-10.968 h 175.912 c 6.047,0 10.968,4.921 10.968,10.968 V -10.968 C 186.88,-4.921 181.959,0 175.912,0 Z M 175.912,-202.066 H 0 c -7.909,0 -14.343,6.434 -14.343,14.342 v 176.756 c 0,7.908 6.434,14.343 14.343,14.343 h 175.912 c 7.909,0 14.343,-6.435 14.343,-14.343 v -176.756 c 0,-7.908 -6.434,-14.342 -14.343,-14.342"
       style="fill:#691e10;fill-opacity:1;fill-rule:nonzero;stroke:none"
       transform="matrix(1.3333333,0,0,-1.3333333,96.7104,138.87307)"
       clip-path="url(#clipPath27)" />
    <g
       opacity="0.399994"
       id="g29"
       clip-path="url(#clipPath30)">
      <path
         d="m 0,0 c 0,6.961 -5.695,12.656 -12.656,12.656 h -175.911 c -6.961,0 -12.656,-5.695 -12.656,-12.656 V -130.774 L 0,-22.176 Z"
         style="fill:#ffffff;fill-opacity:1;fill-rule:nonzero;stroke:none"
         transform="matrix(1.3333333,0,0,-1.3333333,348.13293,153.4972)"
         clip-path="url(#clipPath28)"
         id="path29" />
    </g>
    <path
       id="path33"
       d="m 151.391,412.95 -73.61,-51.961 56.288,22.117 84.883,-61.236 -40.238,48.288 66.005,49.502 -49.967,-18.616 -87.346,60.239 z"
       style="fill:url(#radialGradient33);stroke:none"
       transform="matrix(1.3333333,0,0,-1.3333333,0,793.70667)" />
    <path
       id="path34"
       d="m 0,0 14.831,-16.298 35.604,-39.125 -63.875,-45.089 -17.126,-12.09 19.511,7.666 45.89,18.029 76.191,-54.965 16.262,-11.731 -12.837,15.404 -32.967,39.562 57.929,43.446 14.02,10.516 -16.422,-6.119 L 95.873,-66.12 18.14,-12.51 Z m 16.703,-14.594 78.818,-54.358 42.373,15.786 -60.06,-45.044 34.673,-41.609 -77.312,55.773 -47.175,-18.534 66.216,46.741 z"
       style="fill:#f9f080;fill-opacity:1;fill-rule:nonzero;stroke:none"
       transform="matrix(1.3333333,0,0,-1.3333333,132.0736,168.93187)"
       clip-path="url(#clipPath35)" />
    <path
       id="path38"
       d="M 121.181,446.453 151.7,412.916 93.632,371.927 79.296,361.808 l 16.332,6.415 38.471,15.115 70.037,-50.524 13.613,-9.821 -10.745,12.895 -28.587,34.304 53.301,39.975 11.735,8.802 -13.746,-5.121 -34.983,-13.033 -70.772,48.809 -15.184,10.47 z m 33.7,-33.885 -32.133,35.312 71.682,-49.436 36.017,13.418 -55.086,-41.313 30.015,-36.017 -70.975,51.2 -39.548,-15.537 z"
       style="fill:url(#linearGradient38);stroke:none"
       transform="matrix(1.3333333,0,0,-1.3333333,0,793.70667)" />
    <path
       id="path39"
       d="m 0,0 c 0,-7.01 -0.014,-14.02 0.013,-21.03 0.004,-1.247 -0.385,-2.53 1.705,-2.929 7.736,-1.476 12.574,2.274 12.651,10.24 0.087,8.948 0.067,17.898 0.006,26.847 -0.054,7.787 -3.183,10.56 -11.029,10.606 -2.898,0.017 -3.47,-0.966 -3.403,-3.601 C 0.113,13.426 0,6.712 0,0 m -10.784,-19.973 c 0,16.276 0.105,32.553 -0.085,48.827 -0.04,3.404 0.881,4.402 4.236,4.189 5.058,-0.323 10.159,0.04 15.219,-0.259 9.984,-0.591 16.138,-6.597 16.439,-16.545 0.33,-10.89 0.323,-21.805 0.002,-32.695 -0.289,-9.811 -6.252,-15.68 -15.989,-16.525 -1.93,-0.168 -3.888,-0.294 -5.812,-0.154 -2.534,0.185 -3.313,-0.739 -3.282,-3.298 0.132,-10.898 -0.103,-21.804 0.148,-32.698 0.081,-3.507 -1.055,-4.219 -4.289,-4.113 -6.581,0.215 -6.587,0.035 -6.587,6.683 0.001,15.529 0.001,31.059 0,46.588"
       style="fill:#2b3f6e;fill-opacity:1;fill-rule:nonzero;stroke:none"
       transform="matrix(1.3333333,0,0,-1.3333333,93.876667,466.60493)"
       clip-path="url(#clipPath40)" />
    <path
       id="path41"
       d="m 0,0 c 0,2.832 0.039,5.664 -0.008,8.495 -0.084,5.033 -2.203,7.699 -6.087,7.748 -3.893,0.049 -6.276,-2.679 -6.349,-7.533 -0.086,-5.662 0.11,-11.331 -0.081,-16.988 -0.088,-2.605 0.826,-3.174 3.282,-3.206 C 0.002,-11.608 0,-11.7 0,-2.683 0,-1.788 0,-0.894 0,0 m -22.533,-18.258 c 0,9.115 -0.038,18.23 0.01,27.344 0.054,10.116 5.984,15.748 16.457,15.731 C 4.211,24.801 10.032,19.224 10.073,9.28 10.109,0.315 9.992,-8.652 10.136,-17.614 c 0.041,-2.57 -0.777,-3.311 -3.287,-3.231 -5.373,0.172 -10.76,-0.065 -16.134,0.103 -2.581,0.081 -3.293,-0.807 -3.236,-3.327 0.16,-7.019 0.008,-14.045 0.072,-21.067 0.048,-5.362 2.238,-8 6.379,-7.936 3.958,0.062 5.988,2.613 6.059,7.763 0.056,4.033 0.182,8.078 -0.048,12.099 -0.158,2.773 0.731,3.854 3.504,3.507 1.324,-0.166 2.692,-0.106 4.03,-0.013 1.901,0.132 2.669,-0.605 2.632,-2.564 -0.102,-5.527 0.187,-11.071 -0.148,-16.58 -0.496,-8.133 -7.28,-13.158 -16.889,-12.916 -9.166,0.231 -15.351,5.587 -15.531,13.935 -0.212,9.857 -0.05,19.722 -0.05,29.583 -0.007,0 -0.015,0 -0.022,0"
       style="fill:#2b3f6e;fill-opacity:1;fill-rule:nonzero;stroke:none"
       transform="matrix(1.3333333,0,0,-1.3333333,166.70813,483.11333)"
       clip-path="url(#clipPath42)" />
    <path
       id="path43"
       d="m 0,0 c -0.016,0 -0.032,0 -0.048,0 0,3.275 0.227,6.57 -0.06,9.82 -0.323,3.664 -2.282,6.227 -6.303,6.122 -3.987,-0.104 -5.903,-2.631 -5.991,-6.389 -0.148,-6.25 0.007,-12.507 -0.107,-18.758 -0.037,-2.002 0.729,-2.414 2.595,-2.528 C 0.004,-12.341 0,-12.399 0,-2.68 Z m -22.59,-18.382 c 0,9.115 -0.063,18.23 0.016,27.344 0.088,10.157 6.027,15.685 16.575,15.595 10.224,-0.088 16.028,-5.693 16.09,-15.65 0.053,-8.666 -0.118,-17.335 0.081,-25.997 0.069,-3.038 -0.608,-4.217 -3.882,-4.039 -5.214,0.284 -10.457,-0.002 -15.684,0.113 -2.239,0.05 -3.178,-0.547 -3.129,-2.998 0.148,-7.468 -0.027,-14.943 0.1,-22.411 0.076,-4.475 2.253,-6.805 5.975,-6.908 3.858,-0.106 6.218,2.363 6.408,7.005 0.145,3.58 -0.004,7.171 0.049,10.757 0.09,6.096 -1.131,5.595 5.838,5.523 1.601,-0.016 4.269,1.253 4.249,-2.178 -0.034,-5.826 0.313,-11.691 -0.248,-17.467 -0.773,-7.96 -7.584,-12.636 -16.97,-12.342 -8.975,0.281 -15.099,5.446 -15.338,13.625 -0.293,10.001 -0.07,20.018 -0.07,30.028 -0.02,0 -0.04,0 -0.06,0"
       style="fill:#2b3f6e;fill-opacity:1;fill-rule:nonzero;stroke:none"
       transform="matrix(1.3333333,0,0,-1.3333333,312.5208,482.76773)"
       clip-path="url(#clipPath44)" />
    <path
       id="path45"
       d="m 0,0 c 0,12.697 -0.035,25.394 0.049,38.09 0.009,1.413 -1.048,3.94 1.401,3.98 2.746,0.046 6.316,1.761 8.158,-1.112 1.159,-1.807 1.306,-1.583 2.607,-0.552 4.295,3.403 9.071,3.688 13.876,1.404 4.897,-2.329 6.466,-6.716 6.46,-11.849 -0.007,-6.423 -0.115,-12.849 0.052,-19.268 0.072,-2.795 -0.537,-3.975 -3.676,-3.844 -8.062,0.335 -6.463,-0.796 -6.603,6.665 -0.078,4.181 0.031,8.366 -0.023,12.547 -0.071,5.464 -2.189,8.142 -6.221,8.009 -3.872,-0.129 -5.8,-2.68 -5.806,-7.948 -0.026,-21.36 0.012,-42.721 -0.061,-64.082 -0.005,-1.43 1.095,-3.808 -1.232,-4.147 -2.749,-0.4 -5.687,-0.292 -8.405,0.267 -1.062,0.218 -0.56,2.435 -0.562,3.749 C -0.009,-25.394 0,-12.697 0,0"
       style="fill:#2b3f6e;fill-opacity:1;fill-rule:nonzero;stroke:none"
       transform="matrix(1.3333333,0,0,-1.3333333,229.46067,507.77307)"
       clip-path="url(#clipPath46)" />
    <path
       id="path47"
       d="m 0,0 c 0,-4.432 0.116,-8.46 -0.045,-12.477 -0.092,-2.302 0.565,-3.344 2.993,-3.086 1.478,0.156 3.021,-0.177 4.475,0.068 3.77,0.634 4.347,-1.195 4.289,-4.464 -0.049,-2.75 -0.798,-3.529 -3.561,-3.531 C 0,-23.497 0,-23.627 0,-31.632 c 0,-17.19 -0.007,-34.38 0.004,-51.57 0.005,-7.96 1.873,-9.817 9.716,-9.693 1.599,0.025 3.593,0.634 3.287,-2.114 -0.233,-2.094 1.255,-4.764 -2.542,-5.602 -12.706,-2.801 -20.561,3.263 -20.564,16.155 -0.004,18.834 0.006,37.669 -0.009,56.503 -0.002,2.25 0.792,4.639 -3.232,4.766 -2.75,0.086 -1.116,3.141 -1.404,4.842 -0.204,1.203 -0.477,2.984 1.71,2.771 2.438,-0.238 2.935,0.828 2.993,3.094 C -9.806,-3.257 -9.724,-3.259 0,0"
       style="fill:#2b3f6e;fill-opacity:1;fill-rule:nonzero;stroke:none"
       transform="matrix(1.3333333,0,0,-1.3333333,205.2372,430.8852)"
       clip-path="url(#clipPath48)" />
    <path
       id="path49"
       d="m 0,0 c 0,-16.146 -0.195,-32.296 0.121,-48.435 0.093,-4.714 -2.493,-3.944 -5.297,-4.06 -3.065,-0.127 -5.185,-0.257 -5.157,4.188 0.205,32.59 0.228,65.182 -0.009,97.771 -0.038,5.234 3.027,3.78 5.742,4.01 3.085,0.263 4.775,-0.144 4.711,-4.141 C -0.154,32.892 0,16.445 0,0"
       style="fill:#2b3f6e;fill-opacity:1;fill-rule:nonzero;stroke:none"
       transform="matrix(1.3333333,0,0,-1.3333333,350.70693,494.21653)"
       clip-path="url(#clipPath50)" />
  </g>
</svg>
